<?xml version="1.0" standalone="no"?>
<!DOCTYPE svg PUBLIC "-//W3C//DTD SVG 1.1//EN" "http://www.w3.org/Graphics/SVG/1.1/DTD/svg11.dtd" >
<svg xmlns="http://www.w3.org/2000/svg">
<metadata>
This is a custom SVG webfont generated by Font Squirrel.
Copyright   : Copyright c Ryoichi Tsunekawa 2006 All rights reserved
Designer    : Ryoichi Tsunekawa
Foundry     : Ryoichi Tsunekawa
</metadata>
<defs>
<font id="webfont4Dr4ypNX" horiz-adv-x="819" >
<font-face units-per-em="2048" ascent="1638" descent="-410" />
<missing-glyph horiz-adv-x="960" />
<glyph unicode=" "  horiz-adv-x="960" />
<glyph unicode="&#x09;" horiz-adv-x="960" />
<glyph unicode="&#xa0;" horiz-adv-x="960" />
<glyph unicode="!" horiz-adv-x="761" d="M55 981q16 326 140 340q195 25 458 16q68 -2 68 -112q0 -106 -45 -279q-53 -205 -64 -280q-16 -160 -14 -267q2 -31 -56.5 -55.5t-172.5 -42.5q-47 -8 -95 -8q-115 0 -137 67q-96 289 -82 621zM164 111q0 133 209 163q43 6 78 7q164 0 188 -129q4 -29 4 -39 q0 -129 -203 -162q-111 -18 -184 12q-92 42 -92 148z" />
<glyph unicode="&#x22;" horiz-adv-x="870" d="M41 1485q0 88 164 112q33 4 53 5q143 0 143 -162q0 -100 -61 -248q-25 -61 -56.5 -80.5t-101.5 -19.5q-102 0 -114 47q-6 20 6 71q14 55 14 76q0 66 -31 141q-16 33 -16 58zM469 1485q0 88 164 112q33 4 53 5q143 0 143 -162q0 -100 -61 -248q-25 -61 -56.5 -80.5 t-101.5 -19.5q-102 0 -114 47q-6 20 6 71q14 55 14 76q0 66 -31 141q-16 33 -16 58z" />
<glyph unicode="#" horiz-adv-x="1488" d="M41 1012q4 182 6 207q23 119 131 114l74 -2q59 -4 108 -55l121 -133q10 -10 15 -10q4 4 6 10q0 -10 -6 125q-2 33 16 48t55 15h37q59 0 62 -69q10 -121 6 -349q0 -158 -8 -188q-12 -55 -76 -55h-72q-72 0 -117 45q-117 113 -166 153q-2 2 -6 2q-12 0 -12 -41v-43 q0 -2 4 -51q4 -35 -14.5 -52t-57.5 -15l-41 2q-55 4 -57 80q-8 153 -8 262zM741 1001.5q0 163.5 92.5 254t256.5 90.5q258 0 335 -216q23 -68 23 -129q0 -158 -98.5 -251t-259.5 -93q-164 0 -256.5 90.5t-92.5 254zM1022 1055q-8 -141 51 -195q20 -14 41 -12q45 8 51 104 q4 72 -10 121q-18 78 -72 84q-55 0 -61 -102z" />
<glyph unicode="$" horiz-adv-x="1361" d="M41 236q0 31 8 61q45 125 107 129q49 0 100 -37q88 -63 137 -63q57 0 57.5 55t-94.5 104q-285 150 -293 373q-16 412 461 477l-2 66q-2 59 39 90t123 31q164 0 158 -133q-2 -29 -2 -50q285 -33 448 -176q33 -27 33 -82q0 -31 -8 -61q-45 -125 -107 -129q-47 0 -100 37 q-88 63 -137 63q-57 0 -57.5 -55t94.5 -105q285 -150 292 -372q16 -410 -456 -477v-15q0 -125 -158 -125q-162 0 -162 119v16q-285 33 -448 177q-33 27 -33 82z" />
<glyph unicode="%" horiz-adv-x="1718" d="M41 958q0 184 92 295q100 119 281 119q283 0 360 -258l4 -12q16 -53 19 -109l157 269q74 141 289 106q229 -39 154 -170l-242 -410q59 20 137 21q285 0 361 -258l4 -12q20 -61 20 -146q0 -184 -98 -295q-104 -115 -286.5 -114.5t-280.5 116.5q-86 102 -92 269l-166 -306 q-59 -119 -281 -102q-246 6 -151 191l231 415q-59 -20 -139 -20q-182 0 -281 117q-92 106 -92 294zM328 985q0 -141 67 -201q23 -20 49 -16q59 16 66 127q2 76 -16 149q-25 104 -88 107q-33 2 -52.5 -28.5t-23.5 -94.5q-2 -14 -2 -43zM1206 422q0 -143 68 -201 q23 -20 49 -16q59 16 66 127q2 76 -17 149q-25 104 -88 107q-33 2 -52.5 -29t-23.5 -94q-2 -14 -2 -43z" />
<glyph unicode="&#x26;" horiz-adv-x="1499" d="M47 416q2 154 141 246q-139 92 -141 245q-6 412 576 434q143 4 307 -26q188 -35 295 -90q29 -16 28 -62q0 -31 -8 -61q-20 -78 -41.5 -114t-46.5 -32q-127 25 -272 50q-37 6 -66 6q-137 0 -145 -113q-10 -92 100 -115q33 -6 115 -4q-2 53 2 72q16 41 92 53q23 4 115 6 q27 2 80 2q72 0 88 -8q33 -14 41 -71l8 -52q82 -4 92 -8q51 -18 51 -110q0 -88 -51 -113q-10 -4 -82 -6v-66q0 -160 -12 -235q-10 -51 -45 -86q-203 -158 -525 -172q-39 -2 -77.5 -3t-42.5 -1q-582 18 -576 434zM674 449q2 -66 30.5 -98t82 -27.5t104.5 28.5q14 6 14 23 q0 131 -6 168h-125q-51 0 -76.5 -23.5t-23.5 -70.5z" />
<glyph unicode="'" horiz-adv-x="442" d="M41 1485q0 88 164 112q33 4 53 5q143 0 143 -162q0 -100 -61 -248q-25 -61 -56.5 -80.5t-101.5 -19.5q-102 0 -114 47q-6 20 6 71q14 55 14 76q0 66 -31 141q-16 33 -16 58z" />
<glyph unicode="(" horiz-adv-x="649" d="M41 682q0 217 57 432q63 242 181 391q39 51 96 51q23 0 43 -6l129 -39q61 -18 61 -53q0 -14 -10 -31q-78 -133 -129 -360q-47 -217 -47 -385t47 -385q51 -227 129 -360q10 -16 10 -31q0 -35 -61 -53l-129 -39q-20 -6 -43 -7q-84 0 -160 148q-29 55 -90 217 q-84 221 -84 510z" />
<glyph unicode=")" horiz-adv-x="649" d="M41 -94q0 14 10 31q78 133 129 360q47 217 47 385t-47 385q-51 227 -129 360q-10 16 -10 31q0 35 61 53l129 39q23 6 43 6q82 0 160 -147q29 -53 90 -215q84 -221 84 -512q0 -217 -57 -432q-63 -242 -180 -391q-39 -51 -97 -52q-20 0 -43 7l-129 39q-61 18 -61 53z" />
<glyph unicode="*" horiz-adv-x="677" d="M82 1417q18 51 59 62q59 16 158 -74q-20 47 -29 92q-25 119 86 119q88 0 88 -88q0 -51 -32 -123q98 86 157 74q45 -10 60 -62q8 -18 8 -43q0 -68 -94 -76q-16 -2 -49 -2t-48 2q109 -68 119 -129q4 -39 -43 -73q-43 -33 -82 -17q-57 29 -84 152q-29 -125 -86 -152 q-39 -18 -84 14.5t-41 75.5q6 61 119 129q-16 -2 -47 -2q-88 0 -121.5 31t-13.5 90z" />
<glyph unicode="+" horiz-adv-x="1021" d="M41 575q0 82 24.5 123t75.5 39q55 -2 209 -2v211q-2 51 39 76t123 25t120 -27t36 -80q-2 -25 -2 -205q160 0 215 2q51 2 75.5 -39t24.5 -123q0 -156 -107 -155h-208q0 -176 2 -211q2 -51 -37 -77t-119 -26q-162 0 -162 101v213h-207q-51 -2 -76.5 37.5t-25.5 117.5z" />
<glyph unicode="," horiz-adv-x="497" d="M41 199q0 188 215 188q201 0 201 -217q0 -104 -62 -242q-27 -61 -58.5 -80.5t-98.5 -19.5q-88 0 -108.5 33t1.5 86q33 72 10 82q-100 39 -100 170z" />
<glyph unicode="-" d="M41 571q0 82 24.5 123t75.5 39q78 -2 268.5 -2t268.5 2q51 2 75.5 -39t24.5 -123q0 -78 -26.5 -117.5t-79.5 -37.5q-246 6 -529 0q-51 -2 -76.5 37.5t-25.5 117.5z" />
<glyph unicode="." horiz-adv-x="460" d="M43 147q-2 197 193 197q184 0 184 -197q0 -184 -184 -184q-191 0 -193 184z" />
<glyph unicode="/" horiz-adv-x="851" d="M70 111q133 563 321 1171q27 98 215 70q102 -14 146.5 -50t27.5 -92q-156 -510 -307 -1147q-27 -115 -231 -100q-201 17 -172 148z" />
<glyph unicode="0" horiz-adv-x="1343" d="M41 659q0 307 154 492q166 197 467 197q473 0 602 -430l6 -21q33 -104 33 -242q0 -305 -164 -491q-172 -193 -477 -193q-303 0 -467 195q-154 182 -154 493zM520 705q0 -242 113 -336q39 -33 80 -27q100 25 108 211q6 131 -24 250q-43 174 -148 176q-115 4 -127 -205 q-2 -24 -2 -69z" />
<glyph unicode="1" horiz-adv-x="1060" d="M41 963q0 57 82 118q172 129 301 203q18 10 61 21q66 12 220 12h131q180 0 184 -176q0 -35 -2 -60q-2 -31 -2 -59l-15 -801q-4 -133 -61 -182q-53 -41 -188 -49q-31 -2 -80 -2q-197 2 -277 82q-27 27 -35 141q-6 72 -6 238v282q0 100 -12 117q-8 8 -18 8 q-16 0 -69.5 -28.5t-74.5 -28.5q-53 0 -96 53q-43 56 -43 111z" />
<glyph unicode="2" horiz-adv-x="1325" d="M41 1075q0 55 33 82q84 76 202 119q195 72 386 63q590 -23 577 -434q-6 -233 -285 -358q-88 -39 -132 -74t-42 -67q0 -35 33 -35q55 0 231 102q53 31 101 31q43 0 82 -25q57 -33 53 -209q-2 -188 -139 -247q-86 -35 -312 -35h-450q-141 0 -229.5 77.5t-88.5 210.5 q0 170 121 297q272 291 273 340q0 72 -60 72q-51 0 -139 -63q-53 -37 -100 -37q-61 4 -107 129q-8 30 -8 61z" />
<glyph unicode="3" horiz-adv-x="1314" d="M41 242q0 31 8 61q45 125 107 129q41 0 106 -37q86 -49 178 -53q84 -4 90 80q6 57 -18.5 86t-81.5 27q-129 -2 -176 22q-39 25 -39 105q0 86 51 106q55 18 164 12q55 -2 80 27t20 92q-8 76 -84 78q-98 -4 -184 -53q-66 -37 -106 -37q-61 4 -107 129q-8 31 -8 61 q0 55 33 82q82 70 202 117q203 74 416 65q582 -18 576 -434q-4 -158 -146 -248q141 -90 146 -247q6 -416 -576 -435q-213 -8 -416 66q-121 47 -202 117q-33 27 -33 82z" />
<glyph unicode="4" horiz-adv-x="1497" d="M41 565q18 188 539 697q57 57 401 53q10 0 52 -2t54 -2q182 0 187 -176q0 -14 -2 -59.5t-2 -57.5q0 -2 -1 -19.5t-1 -37.5l-11 -359q0 -35 29 -35q23 0 109 4q41 4 53 -67q10 -37 6 -96q-4 -92 -29 -113q-27 -20 -122 -21q-47 0 -48 -45q0 -125 -56 -176t-195 -61 q-12 0 -27 -2q-86 0 -154 2q-100 4 -176 76q-18 18 -35 165q-166 -2 -303 19q-221 37 -246 131q-22 100 -22 182zM371 551q0 -51 116 -47q88 4 109 26q10 10 20 84l5 68q2 27 -3 88q-6 76 -26 76q-39 0 -158 -172q-63 -90 -63 -123z" />
<glyph unicode="5" horiz-adv-x="1275" d="M41 260q0 31 8 62q45 125 107 129q45 0 100 -37q113 -63 176 -64q57 0 66 51q4 29 4 39q0 100 -131 107q-272 12 -273 162q0 4 4 36q2 8 70 396q35 170 225 170h426q172 0 236 32q25 12 43 13q31 0 45 -33q47 -111 47 -180q0 -74 -49 -107q-80 -57 -176 -61 q-102 -4 -187 -4q-37 0 -53 -56l-6 -53q59 18 125 19q74 0 147 -21q240 -66 240 -346q0 -41 -2 -59q-33 -436 -571 -459q-186 -8 -386 63q-119 43 -202 119q-33 27 -33 82z" />
<glyph unicode="6" horiz-adv-x="1361" d="M51 623q2 199 137 407q127 197 281 279q72 41 193 37q180 -6 315 -80q98 -55 33 -146q-82 -109 -125 -231q88 14 194 -25q242 -88 242 -389q0 -504 -610 -504q-334 0 -499 163t-161 489zM700 424q4 -59 50 -92q41 -31 102 -29q104 4 137 80q10 25 8 49q-2 55 -47 89 t-106 32q-74 -2 -110 -34t-34 -95z" />
<glyph unicode="7" horiz-adv-x="1312" d="M41 934q0 12 4 41q27 147 78 252q37 76 139 82q174 10 447 10h221q186 0 250 -35q92 -51 88 -182q-2 -113 -140 -488l-186 -505q-14 -70 -92 -95q-80 -27 -305 -26q-160 0 -248 35q-49 20 -51 88q-2 143 180 522q106 219 111 276q2 57 -41 70q-49 12 -86 -72 q-29 -66 -111 -63q-168 6 -190 8q-68 4 -68 82z" />
<glyph unicode="8" horiz-adv-x="1245" d="M47 412q4 158 146 247q-131 94 -132 265q0 418 561.5 417.5t561.5 -417.5q0 -170 -131 -265q141 -90 145 -247q6 -434 -575.5 -434t-575.5 434zM303 432q-2 -25 8 -49q33 -76 138 -80q61 -2 102 29q18 25 18 45q0 29 -32 49l-177 119q-53 -58 -57 -113zM676 942 q0 -29 33 -49l151 -102q78 39 82 96q2 25 -8 49q-33 76 -137 80q-61 2 -103 -29q-18 -25 -18 -45z" />
<glyph unicode="9" horiz-adv-x="1351" d="M41 846q0 45 2 63q35 440 608 439q659 0 660 -652q0 -193 -131 -397q-133 -209 -273 -281q-88 -49 -211 -47q-182 -2 -311 82q-94 66 -31 148q78 98 123 229q-63 -12 -194 31q-242 82 -242 385zM365 887q2 -57 51 -90q43 -35 102 -31q74 2 110 33.5t34 95.5 q-2 57 -45.5 90t-106.5 31q-104 -4 -137 -80q-10 -24 -8 -49z" />
<glyph unicode=":" horiz-adv-x="497" d="M41 174q0 213 215 213q201 0 201 -217q0 -201 -201 -201q-215 0 -215 205zM41 958q0 215 215 216q201 0 201 -220q0 -201 -201 -200q-215 -1 -215 204z" />
<glyph unicode=";" horiz-adv-x="497" d="M41 199q0 188 215 188q201 0 201 -217q0 -104 -62 -242q-27 -61 -58.5 -80.5t-98.5 -19.5q-88 0 -108.5 33t1.5 86q33 72 10 82q-100 39 -100 170zM41 958q0 215 215 216q201 0 201 -220q0 -201 -201 -200q-215 -1 -215 204z" />
<glyph unicode="&#x3c;" horiz-adv-x="880" d="M41 575q0 63 68 105l553 319q29 16 53 17q51 0 98 -78q27 -45 27 -82q0 -49 -56 -78q-6 -2 -25 -13l-65 -38l-86 -49l-178 -103l180 -102l178 -102q51 -27 52 -78q0 -33 -29 -86q-41 -74 -94 -74q-27 0 -60 21l-272 157l-274 158q-70 38 -70 106z" />
<glyph unicode="=" horiz-adv-x="759" d="M41 410q0 66 24.5 98.5t75.5 30.5q246 -4 477 0q51 2 76 -31t25 -98q0 -63 -26.5 -95t-80.5 -30q-207 4 -469 0q-51 -2 -76.5 30t-25.5 95zM41 739q0 66 24.5 98.5t75.5 30.5q246 -4 477 0q51 2 76 -30.5t25 -98.5q0 -63 -26.5 -95t-80.5 -30q-207 4 -469 0 q-51 -2 -76.5 30t-25.5 95z" />
<glyph unicode="&#x3e;" horiz-adv-x="880" d="M41 293q0 51 51 78l180 102l179 102l-177 103l-178 100q-55 31 -55 78q0 37 27 82q47 78 98 78q25 0 53 -17l553 -319q68 -37 68 -104.5t-68 -106.5l-276 -158l-273 -157q-33 -20 -59 -21q-53 0 -94 74q-29 53 -29 86z" />
<glyph unicode="?" horiz-adv-x="1288" d="M41 1075q0 55 33 82q84 76 202 119q195 72 386 63q293 -10 437 -118.5t140 -315.5q-6 -266 -285 -358q-244 -84 -237 -119v-8q2 -8 4 -19q4 -31 -51.5 -55t-173.5 -45q-47 -8 -95 -8q-111 0 -133 65q-23 80 -22 158q0 174 125 272q84 68 84 125q0 72 -62 72 q-49 0 -137 -63q-53 -37 -100 -37q-61 4 -107 129q-8 30 -8 61zM291 111q0 133 209 163q43 6 78 7q164 0 188 -129q4 -29 4 -39q0 -129 -203 -162q-111 -18 -184 12q-92 42 -92 148z" />
<glyph unicode="@" horiz-adv-x="1650" d="M41 690q0 360 258 588q248 217 614 217q319 0 519 -211q178 -186 178 -444q0 -268 -156 -426q-158 -158 -422 -158h-47q-182 0 -309 117q-125 119 -125 303q0 176 111 285q113 106 290 106q150 0 279 -86q27 -18 33 -18q8 0 8 12q-84 213 -334 213q-506 0 -506 -547 q0 -254 174 -385q156 -117 418 -117q223 0 375 84q39 23 74 13q49 -23 81 -113q6 -16 7 -31q0 -59 -99 -108q-248 -121 -530 -121q-395 0 -637 215q-254 223 -254 612zM827 664q0 -47 42 -81t96 -34h8q133 0 133 123q0 115 -141 114q-59 0 -98.5 -33.5t-39.5 -88.5z" />
<glyph unicode="A" horiz-adv-x="1515" d="M43 94q0 120 117 426q113 297 235 527q84 156 133 204q80 80 172 82l62 2h11q122 0 206 -84q76 -76 231 -389q238 -477 258 -708q2 -16 2 -30q0 -41 -14 -61q-18 -27 -80 -47q-68 -23 -225 -26h-13q-289 0 -321 90q-10 37 -31 90q-25 49 -71 49h-135q-15 2 -42.5 2 t-66.5 -2q-53 -4 -78 -94q-16 -68 -43.5 -93.5t-93.5 -29.5q-17 -1 -32 -1q-181 0 -181 93zM481 467q-1 -4 -1 -8q0 -14 19 -22q24 -9 77 -9t75 10q17 8 17 22q0 5 -2 11q-70 190 -95 191q-29 0 -90 -195z" />
<glyph unicode="B" horiz-adv-x="1388" d="M41 653q0 532 53 586q41 41 152 55q164 25 338 25q477 0 639 -150q100 -92 100 -268q0 -160 -141 -252q166 -113 166 -282q0 -217 -230 -312q-164 -68 -534 -67q-88 0 -230 14q-217 23 -260 66q-53 57 -53 585zM682 889q0 -76 45 -96q27 -14 115 -15q162 0 162 111 q0 106 -160 106q-84 0 -113 -14q-49 -22 -49 -92zM696 403q0 -76 56 -98q31 -12 125 -12q150 0 149 121q0 102 -154 112q-16 1 -30 1q-66 0 -94 -15q-52 -27 -52 -109z" />
<glyph unicode="C" horiz-adv-x="1464" d="M41 659q0 324 184 506q186 182 512 183q233 0 420 -111q227 -133 256 -367q1 -9 1 -17q0 -65 -71 -89q-16 -6 -145 -23q-13 -2 -24 -1q-74 0 -87 71q-28 166 -151 166q-14 0 -29 -2q-109 -14 -125 -227q-4 -82 -4 -89q0 -322 144 -321q127 0 153 123q22 111 112 111 q3 0 7 -1q109 -4 143 -16q78 -29 78 -106q0 -23 -6 -50q-164 -430 -645 -430q-342 0 -528 174q-195 178 -195 516z" />
<glyph unicode="D" horiz-adv-x="1361" d="M41 649q0 526 35 592q43 80 481 80q500 0 686 -350q78 -145 78 -314q0 -399 -332 -573q-180 -94 -426 -94h-10q-422 4 -477 82q-35 53 -35 577zM723 657q0 -141 10 -243q6 -33 12 -41q8 -16 35 -21h10q144 0 197 178q16 59 17 127q0 248 -175 297q-21 7 -40 7h-9 q-37 -2 -45 -64q-12 -90 -12 -240z" />
<glyph unicode="E" horiz-adv-x="1294" d="M41 479v166q0 492 39 563q20 43 80 66q33 12 104 24q121 20 328 21q272 0 473 -37q188 -35 188 -162q0 -162 -90 -162q-29 0 -100 11q-63 12 -98 12h-22q-82 0 -109 -14q-39 -20 -39 -86q0 -86 104 -97q96 -10 176 -12q70 -4 70 -114q0 -88 -39 -113q-25 -15 -111 -15 h-22q-7 0 -13 1q-108 0 -141 -33q-25 -25 -24 -70q0 -61 41 -86q27 -15 108 -15q10 0 21 1q72 0 194 20q5 1 11 1q59 0 75 -87q8 -39 8 -80q0 -125 -188 -162q-164 -33 -447 -32q-453 0 -522 88q-55 71 -55 403z" />
<glyph unicode="F" horiz-adv-x="1275" d="M41 645q0 487 39 563q20 43 78 66q31 12 102 24q111 20 313 21q274 0 474 -37q188 -35 188 -162q0 -162 -90 -162q-29 0 -101 11q-66 12 -98 12h-21q-82 0 -110 -14q-39 -20 -39 -97q0 -84 105 -96q76 -8 176 -12q70 -2 69 -125q0 -106 -39 -133q-14 -10 -137 -15 q-119 -2 -147 -30q-27 -27 -27 -88q0 -76 2 -123q1 -13 1 -25q0 -85 -25 -129q-45 -88 -244 -104q-14 -2 -47.5 -2t-85.5 2q-121 4 -152 10q-84 14 -129 70q-55 67 -55 575z" />
<glyph unicode="G" horiz-adv-x="1458" d="M41 659q0 324 184 506q188 182 510 183q535 0 666 -430q8 -25 8 -54q0 -74 -70 -100q-41 -16 -145 -25q-10 -1 -18 -1q-72 0 -93 75q-41 164 -150 164q-11 0 -24 -2q-98 -16 -123 -225q-6 -51 -6 -91q0 -170 45 -251q41 -74 119 -75q8 0 17 1q106 8 112 135q4 88 74 111 q34 9 117 8h34q104 -2 115 -129q0 -14 1 -39t2 -61.5t1 -67.5q0 -119 -2 -146l-4 -57q-10 -104 -135 -104q-154 0 -174 88l-8 34q-119 -135 -389 -135q-309 0 -488 189q-176 188 -176 499z" />
<glyph unicode="H" horiz-adv-x="1490" d="M41 659q0 553 53 606.5t305 53.5q156 0 199 -16q86 -37 90 -160q0 -45 -6 -160q-2 -23 -2 -53q0 -88 20 -111q22 -29 91 -29q9 0 18 1q88 2 106 30q9 12 10 67q0 18 -1 42l-13 258q0 37 7 59q18 72 131 72q254 0 305 -33q59 -37 67 -104q4 -35 13 -203q14 -266 14 -498 v-66q0 -252 -14 -319q-8 -39 -33 -63q-47 -45 -332 -45q-139 0 -149 98q-5 40 -5 66v16l9 197q2 20 2 39.5t-2 37.5q-4 47 -37 60q-18 5 -52 4h-24q-63 -2 -96 -21q-35 -23 -43 -86q-2 -10 -2 -63v-115q0 -100 -21 -139q-27 -53 -114 -76q-29 -8 -113 -14q-42 -3 -64 -3 q-11 0 -16 1q-190 12 -254 71q-47 31 -47 598z" />
<glyph unicode="I" horiz-adv-x="755" d="M41 1024q2 152 72 217q84 78 293 78q51 0 114 -2q96 -2 145.5 -46t47.5 -128l-8 -920q-4 -143 -72 -190q-51 -35 -203 -45q-11 -2 -26 -2t-33 2q-197 6 -281 84q-33 35 -43 301v313q0 182 -6 338z" />
<glyph unicode="J" horiz-adv-x="964" d="M41 92q0 86 43 105q113 49 129 61q51 39 55 127q0 59 -2 139l-8 465v49q0 198 31 224q55 53 334 57q59 0 112 -2q184 -6 187 -178v-22q0 -80 -9 -419q-10 -315 -188 -503q-72 -76 -147 -115q-209 -111 -424 -111q-51 0 -82 35t-31 88z" />
<glyph unicode="K" horiz-adv-x="1419" d="M41 629q0 582 55 637q27 27 137 43q88 10 189 10h106q182 0 183 -174q0 -72 -2 -129.5t-2 -128.5q0 -51 22 -47q29 0 51 34l129 256q96 168 186 169q2 0 5 -1q29 -2 141 -2q90 -12 90 -75q0 -100 -244 -467q-16 -20 11 -54q221 -283 272 -512q8 -33 8 -61 q0 -115 -127 -127q-63 -8 -176 -10q-8 0 -16 -1q-158 0 -203 115l-55 142q-63 123 -92 123q-20 0 -21 -72v-31q0 -148 -37 -196q-45 -66 -209 -80h2l-14 -2h-31h-43q-211 0 -264 53q-51 53 -51 588z" />
<glyph unicode="L" horiz-adv-x="1226" d="M43 668q0 233 8 399q10 166 139 221q69 29 366 29h40h5q92 0 132 -72q25 -49 29 -160q0 -270 -2 -501v-78q0 -31 12 -141q23 -31 117 -31h12q25 0 96 6q59 6 99 6q45 0 69 -53q20 -39 21 -111q-4 -72 -62 -108q-31 -23 -125 -45q-168 -41 -417 -41q-90 0 -269 8 q-139 12 -211 76q-59 57 -59 562v34z" />
<glyph unicode="M" horiz-adv-x="1595" d="M43 201q10 406 82 786q63 332 246 332h45q106 0 178 -90l121 -154q20 -23 35 -20q16 0 141 155q90 109 223 109h70q197 0 260 -332q76 -401 104 -829q0 -8 1 -15q0 -86 -66 -125q-54 -31 -152 -30h-12l-131 2q-123 4 -172 41q-59 47 -74 157q-33 276 -47 277 q-8 0 -18 -16l-123 -156q-49 -61 -94.5 -61.5t-92.5 59.5l-118 153q-10 10 -15 11q-20 0 -37 -191l-12 -129q-10 -86 -57 -117q-38 -23 -121 -22h-14q-100 4 -130 59q-21 39 -20 129v17z" />
<glyph unicode="N" horiz-adv-x="1345" d="M43 676q4 512 74 581q60 62 190 62h8l150 -2q119 -2 217 -113q186 -213 240 -264q18 -23 28.5 -22.5t10.5 20.5v10q0 42 -9 240v13q0 56 32 84q36 32 112 32h71q115 0 123 -141q14 -244 15 -695q0 -301 -17 -379q-25 -111 -153 -110h-142q-139 0 -235 90 q-252 238 -332 305q-10 6 -14 6q-23 0 -23 -80q0 -115 8 -188q1 -10 1 -19q0 -55 -31 -84q-35 -32 -105 -32h-8l-80 2q-109 4 -117 160q-15 288 -14 478v46z" />
<glyph unicode="O" horiz-adv-x="1495" d="M41 655q0 328 184 508q186 182 512 183q537 0 682 -459q35 -115 35 -232q0 -324 -197 -503q-195 -182 -520 -182.5t-512 180.5q-184 181 -184 505zM604 762q-2 -34 -2 -66q0 -228 105 -321q28 -27 60 -27q9 0 19 2q94 20 105 207q2 27 2 54q0 94 -23 188 q-41 164 -143 168h-4q-107 0 -119 -205z" />
<glyph unicode="P" horiz-adv-x="1437" d="M41 645q0 487 39 563q20 43 78 66q31 12 102 24q111 20 313 21h185q639 0 639 -434q0 -143 -51 -221q-82 -131 -345 -168l-86 -13q-16 -2 -38 -6l-21 -4q-41 -10 -53 -22q-27 -27 -27 -80q0 -76 2 -123q1 -13 1 -25q0 -85 -25 -129q-45 -88 -244 -104q-14 -2 -47.5 -2 t-85.5 2q-121 4 -152 10q-84 14 -129 70q-55 67 -55 575zM911 773q11 0 23 1q143 8 143 113q0 100 -92 106l-33 2q-21 2 -39 2q-55 0 -84 -14q-54 -23 -53 -87q-1 -123 135 -123z" />
<glyph unicode="Q" horiz-adv-x="1495" d="M41 657.5q0 325.5 184 507.5q186 182 512 183q537 0 682 -459q35 -115 35 -232q0 -330 -207 -514q92 -70 86 -135q-2 -53 -92 -104q-41 -25 -72 -25q-43 0 -79 39q-59 61 -76 92q-117 -39 -277 -39q-326 0 -512 181q-184 180 -184 505.5zM604 762q-2 -34 -2 -66 q0 -228 105 -321q28 -27 60 -27q9 0 19 2q94 20 105 207q2 27 2 54q0 94 -23 188q-41 164 -143 168h-4q-107 0 -119 -205z" />
<glyph unicode="R" horiz-adv-x="1437" d="M41 645q0 492 39 563q35 61 127 80q162 31 336 31h184q639 0 639 -434q0 -231 -176 -328q156 -174 199 -369q8 -33 8 -61q0 -115 -127 -127q-63 -8 -176 -10q-8 0 -17 -1q-158 0 -203 115l-55 142q-57 141 -80 141q-14 0 -10 -47q2 -14 2 -92v-15q0 -93 -24 -139 q-45 -88 -244 -104q-2 -1 -23.5 -1t-62.5 1q-106 4 -152 12q-90 14 -129 68q-55 67 -55 575zM881 773q11 0 22 1q143 8 144 113q0 100 -93 106l-32 2q-20 2 -39 2q-54 0 -84 -14q-54 -23 -54 -87q0 -123 136 -123z" />
<glyph unicode="S" horiz-adv-x="1361" d="M41 236q0 31 8 61q45 125 107 129q49 0 100 -37q88 -63 137 -63q57 0 57.5 55t-94.5 104q-285 150 -293 373q-1 13 0 27q0 443 605 463q22 1 44 0q197 0 373 -66q119 -43 203 -119q33 -27 33 -82q0 -31 -8 -61q-45 -125 -107 -129q-47 0 -100 37q-88 63 -137 63 q-57 0 -57.5 -55t94.5 -105q285 -150 292 -372q1 -13 1 -27q0 -443 -605 -463q-22 -1 -44 -1q-197 0 -374 67q-119 43 -202 119q-33 27 -33 82z" />
<glyph unicode="T" horiz-adv-x="1390" d="M41 1141q0 141 203 157q265 20 537 20q68 0 137 -1q248 -2 364 -47q68 -29 68 -109q0 -154 -72 -188q-29 -14 -96 -15q-12 0 -50 2.5t-47 2.5h-7q-44 0 -66 -24q-25 -26 -25 -79l-6 -637q-4 -143 -72 -190q-51 -35 -202 -45q-11 -2 -26 -2t-34 2q-197 6 -280 84 q-27 27 -35 145q-3 39 -3 119q0 180 13 565q2 37 -18.5 54.5t-59.5 15.5l-102 -6q-5 0 -10 -1q-52 0 -80 41q-31 44 -31 136z" />
<glyph unicode="U" horiz-adv-x="1421" d="M43 727v86q-1 1 -1 23q0 43 3 165q6 297 195 308q20 2 93 4t116 4q25 1 48 1q191 0 220 -46q17 -26 16 -102v-17q0 -31 -10 -242q-6 -133 -6 -241q2 -141 38 -209q34 -64 99 -64h8q18 0 37 2q129 12 129 207l-2 602q0 96 172 97q166 0 170 -91l10 -286q1 -16 1 -80 t-1 -174q-4 -434 -272 -600q-168 -104 -389 -105q-324 0 -504 221q-170 211 -170 537z" />
<glyph unicode="V" horiz-adv-x="1476" d="M41 1165q0 141 266 150q35 1 67 1q168 0 226 -28q61 -27 133 -201q8 -27 43 -112l37 -86l59 -121q16 -16 33 -16q4 0 17 4q45 37 110 231l90 270q14 43 151 44q6 0 13 -1q150 -2 150 -90q0 -80 -56 -254q-70 -219 -176 -473q-109 -258 -160 -329q-121 -170 -296 -170 q-113 0 -195 77q-49 49 -143 218q-152 276 -273 548q-96 221 -96 338z" />
<glyph unicode="W" horiz-adv-x="1607" d="M57 1145q-1 10 -1 20q0 68 50 106q57 44 181 50l129 6h10q99 0 160 -39q76 -51 100 -362q6 -88 25 -88q8 0 20 16l121 156q49 61 94 61t92 -59l119 -154q10 -10 14 -10q23 0 37 192q8 111 11 127q8 86 59 117q38 23 121 23h14q100 -4 129 -60q21 -33 21 -116v-29 q-8 -348 -101 -787q-70 -332 -245 -331h-27q-106 0 -178 90l-121 153q-18 23 -33 23q-20 -4 -143 -158q-90 -109 -223 -108h-50q-197 0 -260 331q-94 498 -125 830z" />
<glyph unicode="X" horiz-adv-x="1474" d="M41 1217q0 74 117 90q116 15 213 14q39 0 75 -2q156 0 222 -43q55 -37 176 -225l133 215q18 45 143 53q10 0 170 -6q137 0 137 -62q0 -14 -10 -34q-119 -213 -350 -519q184 -266 303 -469q63 -100 64 -157q0 -43 -37 -58q-76 -35 -352 -35q-29 0 -60 1q-5 0 -9 -1 q-100 0 -159 44q-63 47 -133 159l-51 80l-133 -217q-23 -45 -146 -53q-29 0 -170 8q-135 0 -135 61q0 14 10 35q113 203 338 522q-176 262 -317 494q-39 60 -39 105z" />
<glyph unicode="Y" horiz-adv-x="1456" d="M41 1217q0 90 264 100q31 2 58 2t51 -2q94 -2 143 -23q61 -25 111 -96l170 -235q14 -14 32 -15q14 0 25 8q47 51 100 150q90 170 101 178q27 20 84 25q24 1 45 1q190 0 190 -65q0 -127 -188 -444l-148 -246q-13 -23 -12 -114v-27l6 -191v-14q0 -128 -72 -176 q-51 -35 -202 -45q-11 -2 -26 -2t-34 2q-197 6 -280 84q-31 29 -35 145l-6 176q-6 133 -33 166l-246 412q-98 172 -98 246z" />
<glyph unicode="Z" horiz-adv-x="1294" d="M41 104v115q0 96 207 413.5t207 332.5q0 10 -11 14q-25 6 -53 6q-39 0 -110 -12q-61 -10 -111 -15h-6q-71 0 -96 52q-18 39 -19 123q4 121 129 157q104 29 427 29h44l336 -2q268 -23 268 -113v-114q0 -98 -206.5 -416t-206.5 -330q0 -10 10 -14q25 -6 53 -6q39 0 111 12 q61 10 110 14h6q71 0 97 -51q18 -41 18 -123q-4 -121 -129 -158q-104 -29 -427 -28h-44l-336 2q-268 22 -268 112z" />
<glyph unicode="[" horiz-adv-x="722" d="M47 485v396q-6 463 197 602q111 72 241 69q61 -2 113 -2q82 0 80 -110q0 -74 -12 -154q-16 -35 -103 -35q-78 -12 -88 -90q-23 -236 -22 -479q0 -236 22 -479q8 -92 133 -92q45 0 58 -33q6 -18 12 -154q2 -111 -80 -110h-4h-12h-23q-12 0 -32.5 -1t-41.5 -1 q-375 -6 -428 464q-10 107 -10 209z" />
<glyph unicode="\" horiz-adv-x="841" d="M61 1257q-20 92 191 93q201 0 219 -80q113 -496 328 -1223q2 -4 2 -14q0 -63 -183 -64q-209 0 -233 84q-201 672 -324 1204z" />
<glyph unicode="]" horiz-adv-x="724" d="M47 -76q-4 61 10 154q14 33 103 37q80 8 88 88q23 215 22 479q0 270 -22 479q-10 92 -133 92q-45 0 -58 33q-4 16 -10 154q-2 111 78 110q39 0 115 2q172 4 297 -120q102 -102 131 -345q12 -111 10 -206l-2 -199q0 -76 2 -197q6 -463 -199 -604q-111 -72 -239 -69 q-63 2 -115 2q-84 -1 -78 110z" />
<glyph unicode="^" horiz-adv-x="854" d="M41 1151q0 35 94 203l70 133q68 127 223 127q150 0 221 -127l51 -94q12 -20 19 -37q94 -156 94 -205q0 -61 -116.5 -61t-149.5 20q-37 23 -66 119l-12 43q-25 88 -43 88h2q-16 0 -49 -94q-6 -27 -35 -115q-23 -47 -82 -57q-29 -4 -104 -4q-117 0 -117 61z" />
<glyph unicode="_" horiz-adv-x="1021" d="M41 -150q0 82 24.5 123t75.5 39q371 -6 740 0q51 2 75.5 -39t24.5 -123q0 -78 -26.5 -117.5t-80.5 -37.5q-334 6 -731 0q-51 -2 -76.5 37.5t-25.5 117.5z" />
<glyph unicode="`" horiz-adv-x="477" d="M45 1667q0 35 117 35q72 0 96 -6q37 -8 72 -66l49 -90q57 -88 49 -113q-6 -25 -63 -24q-94 0 -127 27q-20 14 -50 53q-35 45 -45 57q-102 104 -98 127z" />
<glyph unicode="a" horiz-adv-x="1335" d="M43 84q0 104 102 371q104 274 205 458q72 131 117 179q70 70 149 71l54 2h5q107 0 185 -73q61 -57 201 -338q205 -414 227 -621q2 -15 2 -28q0 -34 -12 -51q-16 -24 -72 -42q-57 -18 -196 -22h-24q-240 0 -267 80l-29 82q-14 39 -59 38h-119q-13 1 -36.5 1t-57.5 -1 q-49 -2 -70 -81q-16 -59 -35 -76q-20 -27 -84 -31q-16 -1 -30 -1q-156 0 -156 83zM425 402q0 -9 11 -15q20 -14 72 -14q18 0 43 6q20 4 30 13q6 6 6 13q0 3 -1 7q-61 166 -80 166q-9 -7 -22.5 -20.5t-36 -59.5t-22.5 -96z" />
<glyph unicode="b" horiz-adv-x="1222" d="M41 569q0 461 47 512q35 35 131 49q158 23 295 23q420 0 559 -131q88 -82 88 -236q0 -139 -123 -221q143 -98 144 -246q0 -188 -201 -272q-135 -57 -467 -57q-59 0 -201 12q-190 14 -225 57q-47 47 -47 510zM600 776q0 -55 31 -80q23 -16 108 -16q88 0 129 47 q12 18 13 49q0 92 -140 92q-70 0 -98 -12q-43 -21 -43 -80zM612 352q0 -66 50 -86q27 -10 110 -10q88 0 119 57q10 20 10 49q0 90 -133 97q-15 1 -29 1q-54 0 -82 -14q-45 -20 -45 -94z" />
<glyph unicode="c" horiz-adv-x="1288" d="M41 575q0 283 162 442t444 159q211 0 369 -95q199 -117 223 -321q1 -8 1 -16q0 -54 -62 -76q-31 -10 -127 -21q-14 -2 -25 -2q-63 0 -72 62q-24 145 -132 145q-12 0 -25 -2q-94 -12 -109 -199q-4 -70 -4 -76q0 -281 125 -280q78 0 113 53q8 18 22 55t19 46q21 49 75 49h9 q137 -4 174 -41q20 -23 20 -66q0 -14 -4 -43q-143 -377 -565 -377q-297 0 -464 156.5t-167 447.5z" />
<glyph unicode="d" horiz-adv-x="1200" d="M41 565q0 463 31 518q39 70 420 70q434 0 600 -305q68 -125 67 -275q0 -346 -291 -499q-162 -84 -381 -84q-367 0 -415 71q-31 45 -31 504zM637 573q0 -147 8 -211q6 -51 41 -55h10q123 0 170 156q14 43 15 110q0 215 -152 258q-23 7 -37 7h-6q-33 -2 -39 -56 q-10 -92 -10 -209z" />
<glyph unicode="e" horiz-adv-x="1140" d="M41 420v143q0 426 35 492q53 98 446 98q227 0 412 -35q84 -16 115 -37q51 -33 51 -104q0 -45 -17 -88q-23 -53 -61 -53q-25 0 -90.5 10t-85.5 10h-21q-70 0 -92 -12q-33 -18 -33 -76q0 -66 95 -84q39 -4 149 -10q61 -2 62 -107q0 -70 -35 -92q-18 -13 -96 -12h-23h-12 q-85 0 -121 -29q-18 -20 -19 -61q0 -53 35 -76q18 -11 86 -11q11 0 25 1q53 0 172 16q6 1 11 1q32 0 50 -31q20 -36 21 -113q0 -111 -166 -142q-156 -29 -389 -28q-393 0 -455 76q-49 61 -49 354z" />
<glyph unicode="f" horiz-adv-x="1124" d="M41 563q0 426 35 492q51 98 430 98q225 0 412 -35q80 -16 116 -37q49 -37 49 -104q0 -45 -16 -88q-23 -53 -61 -53q-23 0 -88.5 10t-86.5 10q-18 1 -33 1q-62 0 -81 -13q-33 -18 -33 -84q0 -74 90 -84q72 -8 154 -10q59 -4 59 -109q0 -94 -33 -119q-25 -10 -114 -10 q-109 0 -133 -27q-23 -27 -23 -77v-107q0 -96 -20 -135q-39 -80 -213 -92q-14 -1 -43.5 -1t-73.5 1q-35 0 -131 10q-76 14 -113 61q-49 60 -49 502z" />
<glyph unicode="g" horiz-adv-x="1282" d="M41 575q0 281 162 441t444 160q465 0 582 -375q8 -25 8 -47q0 -61 -63 -86q-39 -14 -127 -23q-8 -1 -15 -1q-63 0 -80 65q-36 143 -134 142q-9 0 -19 -1q-84 -12 -107 -197q-6 -55 -6 -78q0 -150 40 -220q36 -63 102 -63q8 0 16 1q92 10 98 117q4 80 64 96q20 7 79 7 q24 0 54 -1q98 -4 100 -111q0 -55 2 -147v-76q0 -25 -2 -35v-65q-10 -92 -121 -92q-141 0 -149 75l-8 33q-104 -121 -340 -121q-268 0 -424 166q-156 164 -156 436z" />
<glyph unicode="h" horiz-adv-x="1320" d="M41 889q4 139 61 196q70 68 263 68q133 0 172 -16q76 -33 79 -140q0 -41 -6 -139q-2 -20 -2 -45q0 -76 21 -100q19 -23 81 -23h11q80 2 94 27q7 12 7 56q0 18 -1 40l-10 223q0 117 119 117q223 0 266 -31q49 -27 59 -92q0 -2 11 -176q14 -250 14 -434v-205 q-6 -156 -41 -186q-45 -39 -291 -39q-121 0 -129 86q-4 70 -4 71l6 170q1 24 1 41t-1 27q-2 56 -81 56q-8 0 -17 -1q-59 -2 -84 -16q-31 -18 -37 -76q-2 -14 -2 -55v-100q0 -82 -16 -121q-29 -51 -123 -72q-48 -11 -109 -11q-18 0 -37 1q-166 8 -223 63q-41 29 -41 522 q-8 246 -10 314z" />
<glyph unicode="i" horiz-adv-x="671" d="M41 893q2 131 63 192q72 68 256 68q43 0 99 -2q86 -2 129 -40t41 -114l-8 -802q-2 -121 -62 -166q-45 -33 -176 -39h-53q-172 4 -246 71q-31 29 -37 265v272q0 154 -6 295z" />
<glyph unicode="j" horiz-adv-x="851" d="M41 80q0 76 37 90q100 45 112 55q47 33 50 111q0 51 -2 121q-2 229 -7 407v29q0 184 25 207q53 51 293 53q51 0 98 -2q158 -6 162 -158v-35q0 -91 -6 -348q-6 -272 -164 -442q-55 -57 -129 -98q-188 -98 -371 -99q-43 0 -70.5 32t-27.5 77z" />
<glyph unicode="k" horiz-adv-x="1249" d="M41 549q0 508 49 555q39 49 285 49h92q160 0 160 -154q0 -61 -2 -112t-2 -113q0 -23 5 -33t15 -8q20 0 43 29q102 178 141 266q47 107 133 107h7l123 -5q78 -10 77 -65q0 -86 -213 -408q-14 -14 11 -45q193 -246 237 -446q6 -27 6 -55q0 -102 -110 -111q-92 -8 -154 -10 q-8 0 -16 -1q-136 0 -174 103q-16 35 -49 123q-57 106 -82 107q-16 0 -17 -64v-18q0 -139 -31 -181q-39 -53 -184 -69h-76q-123 0 -186 20q-29 12 -41 25q-47 47 -47 514z" />
<glyph unicode="l" horiz-adv-x="1089" d="M45 776q-1 15 0 29q0 99 25 180q33 104 110 139q61 27 352 27q143 0 146 -203v-129q-2 -100 -2 -311v-66q0 -27 12 -125q19 -25 98 -24h12.5t17.5 1t30.5 2t36.5 1q86 4 88 4q78 0 78 -141q0 -61 -54 -97q-29 -16 -108 -36q-150 -37 -367 -37q-164 0 -217 4 q-137 12 -201 67q-51 51 -51 521q0 -6 0 2t-1 31.5t-2 64.5t-3 96z" />
<glyph unicode="m" horiz-adv-x="1409" d="M43 174q10 369 70 688q55 291 215 291h41q92 0 153 -80q121 -154 137 -153q31 0 72 53l29 47q18 31 22 37q78 96 195 96h63q174 0 226 -291q68 -367 92 -725v-11q0 -65 -45 -99q-49 -37 -156 -37h-117q-100 0 -148 39t-67 137q-8 35 -16 164q-6 76 -23 76q-4 0 -122 -150 q-43 -53 -84 -53q-39 0 -78 51l-105 135q-6 8 -12 8q-20 0 -43 -282q-8 -119 -163 -119h-5q-86 2 -113 51q-19 31 -19 101q0 12 1 26z" />
<glyph unicode="n" horiz-adv-x="1185" d="M43 590q2 442 66 508q53 55 164 55h8l131 -2q100 -2 188 -100l211 -232q18 -18 24.5 -18t10.5 16q0 7 -2 39.5t-4 83.5t-2 103t29 79q32 29 96 29h63q98 0 107 -125q12 -205 12 -606q0 -270 -15 -330q-10 -41 -28 -57q-47 -41 -107 -41h-123q-123 0 -204 80 q-207 201 -289 266q-8 6 -14 6q-18 0 -19 -70v-75q0 -31 6 -90q1 -10 1 -19q0 -48 -27 -73q-31 -28 -90 -27h-9l-69 2q-92 2 -103 141q-13 205 -13 374q0 43 1 83z" />
<glyph unicode="o" horiz-adv-x="1314" d="M41 571q0 285 160.5 444t445.5 159q442 0 592 -377q35 -123 35 -226q0 -281 -172 -440q-168 -160 -455 -160q-283 0 -444.5 158.5t-161.5 441.5zM530 604q0 -186 91 -276q23 -25 52 -25q9 0 19 2q82 23 90 182l2 47q0 85 -18 162q-33 141 -125 148h-6q-91 0 -103 -178 q-2 -23 -2 -62z" />
<glyph unicode="p" horiz-adv-x="1265" d="M41 563q0 426 35 492q51 98 430 98h160q559 0 559 -381q0 -164 -90 -244q-82 -72 -254 -96l-76 -10q-47 -8 -51 -8q-39 -10 -47 -21q-23 -27 -23 -69v-107q0 -96 -20 -135q-39 -80 -213 -92q-14 -1 -43.5 -1t-73.5 1q-35 0 -131 10q-76 14 -113 61q-49 60 -49 502z M684 774q0 -99 118 -99q9 0 19 1q125 8 125 98q0 86 -82 92l-26 2q-18 2 -35 2q-43 0 -72 -12q-48 -20 -48 -72q0 -6 1 -12z" />
<glyph unicode="q" horiz-adv-x="1314" d="M41 573q0 285 160.5 444t445.5 159q442 0 592 -377q35 -123 35 -226q0 -270 -178 -448q74 -66 73 -114q0 -46 -79 -95q-33 -20 -64 -20q-39 0 -70 32q-55 61 -65 80q-111 -35 -244 -35q-283 0 -444.5 158.5t-161.5 441.5zM530 604q0 -186 91 -276q23 -25 52 -25q9 0 19 2 q82 23 90 182l2 47q0 85 -18 162q-33 141 -125 148h-6q-91 0 -103 -178q-2 -23 -2 -62z" />
<glyph unicode="r" horiz-adv-x="1265" d="M41 563q0 426 35 492q27 53 108 69q162 29 295 29h162q557 0 557 -381q0 -106 -33 -170q-33 -68 -123 -115q139 -158 177 -321q6 -27 6 -53q0 -100 -113 -113q-59 -6 -151 -10q-8 0 -16 -1q-136 0 -175 103l-51 123q-51 123 -70 123q-6 0 -6 -41v-80q0 -96 -20 -135 q-39 -76 -213 -92q-10 -1 -29.5 -1t-46.5 1q-106 4 -131 10q-76 14 -113 61q-49 60 -49 502zM774 675q9 0 19 1q125 8 125 98q0 86 -78 92l-31 2q-17 1 -31 1q-51 0 -73 -11q-49 -20 -50 -79q0 -104 119 -104z" />
<glyph unicode="s" horiz-adv-x="1202" d="M41 205q0 29 8 53q43 111 94 113q41 0 88 -31q76 -55 121 -55q49 0 49 49q0 47 -84 90q-246 127 -256 326v23q0 187 124 287q132 105 405 116q17 1 34 0q177 0 332 -58q106 -43 177 -102q29 -25 28 -72q0 -27 -8 -53q-39 -111 -92 -115q-37 0 -88 35q-78 55 -119 55 q-51 0 -51 -51q0 -47 82 -90q250 -129 256 -324v-23q0 -189 -124 -291q-132 -108 -403 -116q-19 -1 -36 0q-307 0 -506 162q-31 25 -31 72z" />
<glyph unicode="t" horiz-adv-x="1224" d="M41 995q0 123 178 140q228 18 461 17q63 0 127 -1q217 -4 317 -43q59 -23 60 -94q0 -133 -64 -166q-25 -12 -82 -12q-12 0 -44.5 2t-41.5 2h-7q-38 0 -57 -21q-22 -23 -22 -67l-4 -557q0 -123 -63 -166q-47 -33 -176 -39h-52q-178 4 -245 71q-25 25 -31 127q-3 36 -3 107 q0 38 6.5 204t6.5 291q0 58 -59 58h-8l-91 -6q-5 0 -10 -1q-46 0 -69 35q-27 37 -27 119z" />
<glyph unicode="u" horiz-adv-x="1249" d="M41 633v76q0 70 2 165q2 258 170 269q111 6 182 8h33q171 0 201 -41q15 -22 14 -86v-16q0 -82 -8 -211q-6 -133 -6 -213q2 -236 127 -236h32q113 12 113 180l-2 527q0 84 150 84q145 0 149 -78q0 -12 3 -99.5l5 -150.5q2 -24 2 -79.5t-2 -143.5q-4 -201 -82 -355 q-63 -129 -209 -200q-125 -61 -286 -62q-281 0 -439 195q-147 180 -149 467z" />
<glyph unicode="v" horiz-adv-x="1298" d="M41 1018q0 121 231 131q32 1 61 1q143 0 195 -26q55 -29 117 -174q2 -8 16.5 -42t22.5 -58l31 -74q53 -121 80 -121q6 0 14 4q39 33 98 203l78 236q14 37 131 37h12q129 -4 129 -78q0 -70 -47 -223q-59 -190 -153 -412q-94 -223 -139 -289q-102 -147 -261 -147 q-100 0 -170 67q-43 41 -125 189q-104 186 -237 481q-84 191 -84 295z" />
<glyph unicode="w" horiz-adv-x="1413" d="M55 999q-1 10 -1 19q0 56 43 90q50 39 159 45l113 6q9 0 17 1q80 0 130 -36q66 -45 88 -315q6 -78 23 -78q2 0 123 152q43 53 84 53q39 0 77 -51l105 -135q6 -10 12 -11q18 2 33 168q0 8 3 45t5 66q8 76 53 102q38 21 106 21h13q86 -2 113 -51q17 -35 16 -112v-17 q-8 -297 -88 -685q-61 -291 -215 -290h-23q-96 0 -155 77l-105 136q-14 20 -28 20q-12 -4 -125 -139q-76 -94 -195 -94h-45q-170 0 -225 290q-84 434 -111 723z" />
<glyph unicode="x" horiz-adv-x="1298" d="M41 1063q0 66 100 80q121 8 252 8q139 0 193 -37q57 -41 155 -199l115 189q14 37 125 47q3 1 13 0q32 0 136 -4q121 -6 121 -55q0 -16 -8 -31q-94 -174 -307 -453q156 -227 264 -401q57 -88 57 -139q0 -35 -32 -50q-70 -31 -315 -31q-29 0 -60 1q-8 0 -16 -1 q-69 0 -115 33q-51 37 -117 140l-45 69l-115 -190q-20 -39 -127 -45q-5 -1 -19 -1q-36 0 -130 7q-119 6 -119 55q0 16 8 31q82 152 299 453q-164 240 -280 432q-33 51 -33 92z" />
<glyph unicode="y" horiz-adv-x="1280" d="M41 1063q0 78 231 88q27 2 50.5 2t44.5 -2q80 -2 125 -21q49 -23 133 -133l112 -157q16 -12 28.5 -12.5t20.5 6.5q45 51 88 131q76 147 89 155q18 18 73 23q23 1 44 1q159 0 159 -57q0 -55 -45 -159q-35 -84 -246 -443q-13 -23 -12 -100v-23l6 -167v-14q0 -110 -61 -152 q-47 -33 -179 -39h-53q-104 2 -194 37q-49 25 -66 63q-8 25 -12 98q0 51 -6 156q-2 104 -29 145q-74 113 -215 359q-86 152 -86 215z" />
<glyph unicode="z" horiz-adv-x="1140" d="M41 92v98q0 88 180 362.5t180 289.5q0 10 -8 12q-20 6 -49 6t-96 -10l-94 -14q-5 0 -11 -1q-46 0 -69 34q-27 38 -27 120q0 102 115 137q101 27 372 27h39q240 -2 406 -18q121 -12 121 -84v-99q0 -84 -182 -362q-180 -274 -181 -291q0 -6 11 -10q23 -6 49 -6q27 0 98 10 q63 10 92 12h10q58 0 80 -45q16 -37 17 -106q-4 -129 -217 -160q-45 -5 -196 -5q-50 0 -112 1q-238 2 -407 18q-121 12 -121 84z" />
<glyph unicode="{" horiz-adv-x="667" d="M41 664v34q61 29 76 74q14 39 -4 125q-31 135 -31 137q-12 63 -16 140q-4 182 89 284.5t271 100.5q55 0 119 -9q80 -10 80 -114q0 -68 -13 -150q-16 -35 -102 -35q-82 -12 -88 -90q-4 -70 4 -129q16 -123 18 -125q10 -143 -90 -225q98 -88 90 -225q-4 -4 -18 -127 q-8 -59 -4 -127q8 -92 133 -92q66 0 68 -82q0 -53 2 -103q4 -102 -80 -112q-70 -10 -117 -13q-186 -14 -295 131q-74 100 -70 258q2 100 52 291q18 66 2 111q-17 43 -76 72z" />
<glyph unicode="|" horiz-adv-x="409" d="M45 -43q20 721 0 1442q-2 59 39 90t123 31t121 -34t37 -100q-20 -690 0 -1423q2 -63 -37 -94t-121 -31q-84 0 -124 30t-38 89z" />
<glyph unicode="}" horiz-adv-x="665" d="M43 -74q0 53 2 103q2 82 66 82q123 0 133 92q4 68 -4 127l-17 127q-12 137 88 225q-100 82 -88 225q0 4 2 21.5t6.5 45t8.5 58.5q8 59 4 129q-6 78 -88 90q-33 -2 -86 13q-23 18 -25 82q-2 31 -2 90q-2 104 78 114q63 8 121 9q176 2 269 -101.5t91 -283.5 q-4 -111 -51 -291q-18 -66 -2 -111q14 -45 76 -74v-34q-59 -29 -76 -72t4 -127q4 -14 33 -129q12 -55 16 -146q4 -139 -59 -243q-70 -119 -199 -142q-41 -8 -106 -4q-45 2 -117 13q-82 10 -78 112z" />
<glyph unicode="~" horiz-adv-x="1169" d="M43 1182q-2 23 2 51l21 88q49 211 245 256q76 18 144 6q102 -18 182 -84l57 -51q47 -55 72 -55h12q29 8 37 43l10 61q2 12 11 53q18 49 92 47q190 -2 200 -92q0 -39 -22 -139q-27 -117 -117 -192.5t-207 -75.5q-145 0 -245 88l-56 53q-59 55 -73 53q-2 0 -7.5 -1t-7.5 -3 q-45 -2 -49 -98q-4 -76 -43 -92q-18 -8 -55 -6q-84 4 -121 14q-80 23 -82 76z" />
<glyph unicode="&#xa2;" horiz-adv-x="1464" d="M41 659.5q0 270.5 129 444.5q137 186 399 229v68q0 121 162 121q82 0 121 -34t37 -99l-2 -54q145 -25 270 -98q227 -133 256 -367q10 -80 -70 -106q-16 -6 -145 -23q-96 -12 -111 70q-31 184 -180 164q-109 -14 -125 -227q-4 -82 -4 -89q0 -322 144 -321q127 0 153 123 q23 115 119 110q109 -4 143 -16q78 -29 78 -106q0 -23 -6 -50q-141 -373 -522 -422q2 -4 2 -12q2 -63 -37 -94t-121 -31q-162 0 -162 119v27q-262 47 -399 229q-129 174 -129 444.5z" />
<glyph unicode="&#xa3;" horiz-adv-x="1355" d="M43 575q2 154 74 154h80q29 0 34 21q133 459 297 538q115 55 346 55q199 0 232 -6q139 -29 125 -147q-10 -98 -38 -144.5t-71 -37.5l-49 8q-20 4 -40.5 -24.5t-41 -89t-43.5 -154.5q-2 -20 10 -21h164q74 0 70 -152q-2 -137 -74 -137h-203q-18 0 -18 -12q-2 -12 -2 -34.5 t6 -35.5q27 -39 88 -32q131 12 225 32q53 10 80 -59q20 -47 21 -115q0 -70 -62 -108q-35 -23 -125 -45q-176 -41 -417 -41q-178 0 -248 4q-178 16 -236 76q-59 66 -59 241q0 49 8 125q0 4 -4 4h-59q-72 0 -70 137z" />
<glyph unicode="&#xa5;" horiz-adv-x="1456" d="M41 1217q0 90 264 100q61 4 109 0q94 -2 143 -23q61 -25 111 -96l170 -235q14 -14 32 -15q14 0 25 8q47 51 100 150q90 170 101 178q27 20 84 25q236 8 235 -64q0 -127 -186 -442l-150 -248q-10 -16 -12 -47h88q39 0 39 -49t-43 -49h-84l2 -105h86q39 0 39 -49 q0 -51 -43 -49h-78q-6 -129 -78 -178q-59 -41 -196 -41h-60q-197 0 -280 84q-23 18 -35 135h-121q-41 0 -41 49t39 49h121q-4 59 -6 105h-113q-41 0 -41 49t39 49h105q-6 35 -21 51l-246 412q-98 172 -98 246z" />
<glyph unicode="&#xa9;" horiz-adv-x="1458" d="M41 655q0 301 192 494q193 197 494 197t495.5 -195t194.5 -496t-196 -493q-193 -193 -494 -193t-493.5 192.5t-192.5 493.5zM227 657.5q0 -219.5 140 -358.5q143 -139 360 -139q219 0 358 139q141 137 142 358q0 219 -139.5 358.5t-360.5 139.5q-217 0 -360 -139 q-140 -139 -140 -358.5zM385 659q0 164 92 254.5t256 90.5q121 0 217 -60q104 -63 121 -180q2 -39 -35 -53q-18 -8 -73 -11q-45 -8 -56 35q-14 92 -90 82q-55 -10 -61 -115q-2 -23 -2 -43q0 -111 37 -145q16 -16 34 -16q51 0 76 57q25 59 60 59q61 -2 83 -12q33 -18 25 -74 q-82 -215 -324 -215q-172 0 -266 89t-94 257z" />
<glyph unicode="&#xad;" d="M41 571q0 82 24.5 123t75.5 39q78 -2 268.5 -2t268.5 2q51 2 75.5 -39t24.5 -123q0 -78 -26.5 -117.5t-79.5 -37.5q-246 6 -529 0q-51 -2 -76.5 37.5t-25.5 117.5z" />
<glyph unicode="&#xae;" horiz-adv-x="1458" d="M41 655q0 301 192 494q193 197 494 197t495.5 -195t194.5 -496t-196 -493q-193 -193 -494 -193t-493.5 192.5t-192.5 493.5zM227 657.5q0 -219.5 140 -358.5q143 -139 360 -139q219 0 358 139q141 137 142 358q0 219 -139.5 358.5t-360.5 139.5q-217 0 -360 -139 q-140 -139 -140 -358.5zM385 649q0 244 21 283q14 27 88 45q45 10 143 10h92q319 0 320 -217q0 -121 -88 -164q102 -119 102 -215q0 -61 -64 -63q-23 -4 -88 -6q-86 -4 -108 57l-29 72q-27 70 -41 69q-8 0 -4 -22q0 -20 2 -47q2 -49 -12 -76q-29 -53 -123 -53h-43 q-104 0 -139 40q-29 35 -29 287zM737 770q4 -57 80 -55q72 4 72 55q0 47 -47 53l-17 2q-39 2 -61 -6q-29 -12 -27 -49z" />
<glyph unicode="&#xb4;" horiz-adv-x="471" d="M47 1427q-6 16 16 58l68 117q0 2 6 13t10 21q23 47 68 60q25 6 96 6q115 0 119 -35q0 -25 -100 -127l-17 -21l-26.5 -33t-26.5 -34q-43 -49 -151 -49q-56 -1 -62 24z" />
<glyph unicode="&#x2000;" horiz-adv-x="897" />
<glyph unicode="&#x2001;" horiz-adv-x="1796" />
<glyph unicode="&#x2002;" horiz-adv-x="897" />
<glyph unicode="&#x2003;" horiz-adv-x="1796" />
<glyph unicode="&#x2004;" horiz-adv-x="598" />
<glyph unicode="&#x2005;" horiz-adv-x="448" />
<glyph unicode="&#x2006;" horiz-adv-x="299" />
<glyph unicode="&#x2007;" horiz-adv-x="299" />
<glyph unicode="&#x2008;" horiz-adv-x="223" />
<glyph unicode="&#x2009;" horiz-adv-x="358" />
<glyph unicode="&#x200a;" horiz-adv-x="98" />
<glyph unicode="&#x2010;" d="M41 571q0 82 24.5 123t75.5 39q78 -2 268.5 -2t268.5 2q51 2 75.5 -39t24.5 -123q0 -78 -26.5 -117.5t-79.5 -37.5q-246 6 -529 0q-51 -2 -76.5 37.5t-25.5 117.5z" />
<glyph unicode="&#x2011;" d="M41 571q0 82 24.5 123t75.5 39q78 -2 268.5 -2t268.5 2q51 2 75.5 -39t24.5 -123q0 -78 -26.5 -117.5t-79.5 -37.5q-246 6 -529 0q-51 -2 -76.5 37.5t-25.5 117.5z" />
<glyph unicode="&#x2012;" d="M41 571q0 82 24.5 123t75.5 39q78 -2 268.5 -2t268.5 2q51 2 75.5 -39t24.5 -123q0 -78 -26.5 -117.5t-79.5 -37.5q-246 6 -529 0q-51 -2 -76.5 37.5t-25.5 117.5z" />
<glyph unicode="&#x2013;" horiz-adv-x="1024" d="M41 573q0 82 24.5 123t75.5 39q254 -4 371 -4t371 4q51 2 75.5 -39t24.5 -123q0 -78 -26.5 -117.5t-79.5 -37.5q-336 6 -734 0q-51 -2 -76.5 37.5t-25.5 117.5z" />
<glyph unicode="&#x2014;" horiz-adv-x="1208" d="M41 573q0 82 24.5 123t75.5 39q469 -6 926 0q51 2 75.5 -39t24.5 -123q0 -78 -26.5 -117.5t-79.5 -37.5q-412 8 -918 0q-51 -2 -76.5 37.5t-25.5 117.5z" />
<glyph unicode="&#x2018;" horiz-adv-x="442" d="M41 1284q0 100 61 248q25 61 56.5 80.5t101.5 19.5q98 0 115 -47q6 -18 -6 -72q-14 -55 -15 -75q0 -66 31 -142q16 -33 16 -57q0 -76 -139 -106q-51 -10 -78 -11q-143 0 -143 162z" />
<glyph unicode="&#x2019;" horiz-adv-x="442" d="M41 1485q0 88 164 112q33 4 53 5q143 0 143 -162q0 -100 -61 -248q-25 -61 -56.5 -80.5t-101.5 -19.5q-102 0 -114 47q-6 20 6 71q14 55 14 76q0 66 -31 141q-16 33 -16 58z" />
<glyph unicode="&#x201c;" horiz-adv-x="870" d="M41 1284q0 100 61 248q25 61 56.5 80.5t101.5 19.5q98 0 115 -47q6 -18 -6 -72q-14 -55 -15 -75q0 -66 31 -142q16 -33 16 -57q0 -76 -139 -106q-51 -10 -78 -11q-143 0 -143 162zM469 1284q0 100 61 248q25 61 56.5 80.5t101.5 19.5q98 0 115 -47q6 -18 -6 -72 q-14 -55 -15 -75q0 -66 31 -142q16 -33 16 -57q0 -76 -139 -106q-51 -10 -78 -11q-143 0 -143 162z" />
<glyph unicode="&#x201d;" horiz-adv-x="870" d="M41 1485q0 88 164 112q33 4 53 5q143 0 143 -162q0 -100 -61 -248q-25 -61 -56.5 -80.5t-101.5 -19.5q-102 0 -114 47q-6 20 6 71q14 55 14 76q0 66 -31 141q-16 33 -16 58zM469 1485q0 88 164 112q33 4 53 5q143 0 143 -162q0 -100 -61 -248q-25 -61 -56.5 -80.5 t-101.5 -19.5q-102 0 -114 47q-6 20 6 71q14 55 14 76q0 66 -31 141q-16 33 -16 58z" />
<glyph unicode="&#x2022;" horiz-adv-x="696" d="M41 571.5q0 307.5 307 307.5t307 -307.5t-307 -307.5t-307 307.5z" />
<glyph unicode="&#x2026;" horiz-adv-x="1515" d="M41 174q0 213 215 213q201 0 201 -217q0 -201 -201 -201q-215 0 -215 205zM551 174q0 213 215 213q201 0 201 -217q0 -201 -201 -201q-215 0 -215 205zM1059 174q0 213 215 213q201 0 201 -217q0 -201 -201 -201q-215 0 -215 205z" />
<glyph unicode="&#x202f;" horiz-adv-x="358" />
<glyph unicode="&#x205f;" horiz-adv-x="448" />
<glyph unicode="&#x20ac;" horiz-adv-x="1576" d="M41 567q0 49 39 49h74v43q0 41 2 62h-74q-41 0 -41 49t39 49h86q43 262 233 400q182 129 451 129q231 0 420 -111q227 -133 256 -367q10 -80 -70 -106q-16 -6 -145 -23q-96 -12 -111 70q-31 184 -180 164q-90 -12 -117 -156h88q39 0 39 -49t-43 -49h-94q-2 -27 -2 -62 v-43h100q39 0 39 -49q0 -51 -43 -49h-86q27 -180 133 -180q125 0 154 123q23 115 119 110q109 -4 143 -16q78 -29 78 -106q0 -23 -6 -50q-162 -430 -645 -430q-295 0 -476 129q-199 137 -239 420h-80q-41 0 -41 49z" />
<glyph unicode="&#x2122;" horiz-adv-x="1482" d="M41 1231q0 68 102 78q180 12 336 10q117 -2 183 -25q35 -12 34 -53q0 -78 -37 -94q-14 -8 -47 -8q-14 0 -24 2h-25q-49 0 -49 -51l-2 -318q0 -66 -29.5 -90.5t-107.5 -28.5h-31q-96 4 -139 43q-16 16 -19 72q-2 51 7 342q0 35 -39 35l-52 -2q-31 -2 -46 20.5t-15 67.5z M686 760q6 199 41 393q31 166 123 166h22q51 0 89 -45l61 -76q10 -12 16 -10q6 0 72 78q43 53 111 53h34q100 0 131 -166q39 -197 52 -414q4 -51 -33 -71q-31 -16 -82 -15l-66 2q-63 4 -83 19q-37 29 -50 174q-2 45 -12 45q-4 0 -72 -86q-25 -31 -47 -31q-29 0 -104 107 q-4 6 -8 6q-8 0 -13 -31l-12 -133q-6 -72 -96 -68q-76 3 -74 103z" />
<glyph unicode="&#xe000;" horiz-adv-x="1150" d="M0 1150h1150v-1150h-1150v1150z" />
<glyph unicode="&#xfb01;" horiz-adv-x="1775" d="M41 563q0 426 35 492q51 98 430 98q225 0 412 -35q80 -16 116 -37q49 -37 49 -104q0 -45 -16 -88q-23 -53 -61 -53q-23 0 -88.5 10t-86.5 10q-90 4 -114 -12q-33 -18 -33 -84q0 -74 90 -84q72 -8 154 -10q59 -4 59 -109q0 -94 -33 -119q-25 -10 -114 -10q-109 0 -133 -27 q-23 -27 -23 -77v-107q0 -96 -20 -135q-39 -80 -213 -92q-29 -2 -117 0q-35 0 -131 10q-76 14 -113 61q-49 60 -49 502zM1145 893q2 131 63 192q70 68 256 68q43 0 99 -2q86 -2 129 -40t41 -114l-9 -802q-4 -125 -61 -166q-47 -31 -176 -37h-53q-170 4 -246 69 q-31 29 -37 265v272q0 160 -6 295z" />
<glyph unicode="&#xfb02;" horiz-adv-x="2195" d="M41 563q0 426 35 492q51 98 430 98q225 0 412 -35q80 -16 116 -37q49 -37 49 -104q0 -45 -16 -88q-23 -53 -61 -53q-23 0 -88.5 10t-86.5 10q-90 4 -114 -12q-33 -18 -33 -84q0 -74 90 -84q72 -8 154 -10q59 -4 59 -109q0 -94 -33 -119q-25 -10 -114 -10q-109 0 -133 -27 q-23 -27 -23 -77v-107q0 -96 -20 -135q-39 -80 -213 -92q-29 -2 -117 0q-35 0 -131 10q-76 14 -113 61q-49 60 -49 502zM1151 776q0 293 135 348q61 27 352 27q143 0 146 -203v-129q-2 -100 -2 -311v-66q0 -27 12 -125q20 -27 111 -24q6 0 17 1t30.5 2t36.5 1q86 4 88 4 q78 0 77 -141q0 -61 -53 -97q-27 -18 -108 -36q-152 -35 -367 -35q-164 0 -217 4q-135 12 -201 65q-53 53 -51 521q0 122 -6 194z" />
<glyph unicode="&#xfb03;" horiz-adv-x="2920" d="M2290 893q2 131 63 192q72 68 256 68q43 0 99 -2q86 -2 129 -40t41 -114l-8 -802q-2 -121 -62 -166q-45 -33 -176 -39h-53q-172 4 -246 71q-31 29 -37 265v272q0 154 -6 295zM1165 563q0 426 35 492q51 98 430 98q225 0 412 -35q80 -16 116 -37q49 -37 49 -104 q0 -45 -16 -88q-23 -53 -61 -53q-23 0 -88.5 10t-86.5 10q-18 1 -33 1q-62 0 -81 -13q-33 -18 -33 -84q0 -74 90 -84q72 -8 154 -10q59 -4 59 -109q0 -94 -33 -119q-25 -10 -114 -10q-109 0 -133 -27q-23 -27 -23 -77v-107q0 -96 -20 -135q-39 -80 -213 -92q-14 -1 -43.5 -1 t-73.5 1q-35 0 -131 10q-76 14 -113 61q-49 60 -49 502zM41 563q0 426 35 492q51 98 430 98q225 0 412 -35q80 -16 116 -37q49 -37 49 -104q0 -45 -16 -88q-23 -53 -61 -53q-23 0 -88.5 10t-86.5 10q-18 1 -33 1q-62 0 -81 -13q-33 -18 -33 -84q0 -74 90 -84q72 -8 154 -10 q59 -4 59 -109q0 -94 -33 -119q-25 -10 -114 -10q-109 0 -133 -27q-23 -27 -23 -77v-107q0 -96 -20 -135q-39 -80 -213 -92q-14 -1 -43.5 -1t-73.5 1q-35 0 -131 10q-76 14 -113 61q-49 60 -49 502z" />
<glyph unicode="&#xfb04;" horiz-adv-x="3338" d="M2294 776q-1 15 0 29q0 99 25 180q33 104 110 139q61 27 352 27q143 0 146 -203v-129q-2 -100 -2 -311v-66q0 -27 12 -125q19 -25 98 -24h12.5t17.5 1t30.5 2t36.5 1q86 4 88 4q78 0 78 -141q0 -61 -54 -97q-29 -16 -108 -36q-150 -37 -367 -37q-164 0 -217 4 q-137 12 -201 67q-51 51 -51 521q0 -6 0 2t-1 31.5t-2 64.5t-3 96zM1165 563q0 426 35 492q51 98 430 98q225 0 412 -35q80 -16 116 -37q49 -37 49 -104q0 -45 -16 -88q-23 -53 -61 -53q-23 0 -88.5 10t-86.5 10q-18 1 -33 1q-62 0 -81 -13q-33 -18 -33 -84q0 -74 90 -84 q72 -8 154 -10q59 -4 59 -109q0 -94 -33 -119q-25 -10 -114 -10q-109 0 -133 -27q-23 -27 -23 -77v-107q0 -96 -20 -135q-39 -80 -213 -92q-14 -1 -43.5 -1t-73.5 1q-35 0 -131 10q-76 14 -113 61q-49 60 -49 502zM41 563q0 426 35 492q51 98 430 98q225 0 412 -35 q80 -16 116 -37q49 -37 49 -104q0 -45 -16 -88q-23 -53 -61 -53q-23 0 -88.5 10t-86.5 10q-18 1 -33 1q-62 0 -81 -13q-33 -18 -33 -84q0 -74 90 -84q72 -8 154 -10q59 -4 59 -109q0 -94 -33 -119q-25 -10 -114 -10q-109 0 -133 -27q-23 -27 -23 -77v-107q0 -96 -20 -135 q-39 -80 -213 -92q-14 -1 -43.5 -1t-73.5 1q-35 0 -131 10q-76 14 -113 61q-49 60 -49 502z" />
</font>
</defs>
</svg>
